<?xml version="1.0" standalone="no"?>
<!DOCTYPE svg PUBLIC "-//W3C//DTD SVG 20010904//EN"
 "http://www.w3.org/TR/2001/REC-SVG-20010904/DTD/svg10.dtd">
<svg version="1.0" xmlns="http://www.w3.org/2000/svg"
 width="2194.000000pt" height="2194.000000pt" viewBox="0 0 2194.000000 2194.000000"
 preserveAspectRatio="xMidYMid meet">
<metadata>
Created by potrace 1.11, written by Peter Selinger 2001-2013
</metadata>
<g transform="translate(0.000000,2194.000000) scale(0.100000,-0.100000)"
fill="#000000" stroke="none">
<path d="M10889 21903 c-3 -121 -8 -389 -14 -758 -4 -231 -8 -445 -9 -475 -4
-90 -11 -85 132 -85 l127 0 1 60 c9 557 16 919 20 1088 l4 207 -130 0 -130 0
-1 -37z"/>
<path d="M10057 21904 c-3 -2 -176 -13 -214 -14 -31 0 -33 -3 -52 -62 -100
-319 -177 -566 -196 -631 -13 -42 -26 -81 -29 -85 -3 -5 -7 -19 -10 -33 -3
-13 -19 -69 -36 -124 -17 -55 -42 -134 -55 -175 -13 -41 -37 -119 -54 -174
-17 -54 -31 -102 -31 -107 0 -5 21 -7 48 -3 52 6 136 12 198 13 l40 1 43 153
c24 83 46 155 50 159 3 4 47 10 96 13 50 4 110 8 135 10 25 2 90 7 145 10 55
4 114 8 131 10 32 3 32 1 98 -137 36 -77 66 -144 66 -150 0 -8 212 -3 275 6
34 5 60 -55 -319 729 -40 83 -117 242 -171 352 -53 110 -101 210 -105 222 -6
14 -17 21 -30 20 -12 -1 -22 -2 -23 -3z m33 -583 c56 -123 100 -225 98 -226
-5 -6 -87 -14 -203 -20 -60 -4 -120 -8 -132 -10 -13 -2 -23 2 -23 8 0 9 118
431 136 487 7 20 3 27 124 -239z"/>
<path d="M11877 21554 c-1 -1 -29 -4 -63 -7 -82 -8 -162 -40 -231 -92 -68 -51
-75 -59 -120 -134 -52 -86 -75 -170 -76 -281 0 -107 14 -181 50 -257 110 -226
446 -327 692 -206 72 35 178 142 213 215 76 156 76 361 0 502 -33 61 -136 167
-189 194 -63 32 -134 53 -206 61 -37 4 -68 6 -70 5z m122 -238 c82 -43 132
-135 132 -247 1 -159 -47 -261 -144 -308 -134 -64 -279 6 -323 157 -21 70 -14
186 16 264 23 63 89 131 144 148 43 13 136 6 175 -14z"/>
<path d="M12766 21408 c-3 -10 -33 -140 -52 -223 -1 -5 -14 -62 -29 -125 -14
-63 -37 -164 -51 -225 -14 -60 -27 -117 -29 -125 -23 -93 -55 -243 -53 -246 2
-1 56 -16 121 -31 81 -20 120 -26 126 -19 7 9 36 122 48 188 13 71 85 354 102
399 25 65 59 104 115 130 80 36 191 6 228 -62 33 -59 19 -148 -105 -669 -7
-30 -12 -62 -12 -69 0 -11 35 -23 120 -42 66 -15 123 -24 127 -20 3 3 13 40
22 81 9 41 18 84 21 95 3 11 7 29 9 40 3 11 14 58 24 105 11 47 34 148 52 225
53 232 43 322 -48 407 -73 68 -150 99 -262 103 -82 3 -152 -20 -243 -79 l-26
-17 15 53 c23 86 25 83 -78 108 -137 32 -138 32 -142 18z"/>
<path d="M8162 21224 c-320 -67 -447 -401 -282 -749 85 -181 217 -268 399
-264 146 3 278 55 366 143 58 58 88 114 109 204 l15 64 -92 -8 c-51 -4 -103
-8 -117 -9 -14 -2 -33 -3 -42 -4 -13 -1 -18 -9 -18 -29 0 -15 -10 -48 -22 -72
-54 -104 -209 -118 -300 -26 -30 31 -74 114 -64 123 5 6 129 40 466 129 74 20
140 39 147 42 8 5 5 26 -12 77 -34 105 -58 153 -109 223 -101 137 -262 193
-444 156z m179 -216 c42 -23 86 -82 95 -127 l6 -28 -182 -47 c-99 -27 -184
-45 -188 -41 -4 4 -8 35 -9 70 -1 54 2 70 27 108 57 90 160 117 251 65z"/>
<path d="M14109 21036 c-124 -33 -233 -128 -298 -261 -71 -143 -95 -277 -71
-397 36 -188 168 -307 399 -359 138 -31 313 29 393 133 l26 34 -113 59 -113
59 -46 -42 c-28 -26 -56 -43 -73 -44 -16 0 -35 -2 -43 -3 -21 -2 -101 33 -124
53 -37 34 -59 94 -60 164 -1 83 8 94 60 74 21 -8 153 -51 292 -96 140 -45 260
-84 267 -86 24 -9 65 160 67 273 1 86 -10 140 -44 207 -89 177 -327 284 -519
232z m247 -228 c52 -35 83 -105 79 -178 -2 -33 -6 -64 -9 -69 -5 -7 -264 70
-359 107 -16 7 -16 9 4 47 27 52 67 94 104 111 44 21 137 12 181 -18z"/>
<path d="M7365 20961 c-22 -10 -64 -26 -92 -35 -29 -10 -55 -22 -59 -27 -3 -5
4 -34 15 -65 12 -30 21 -57 21 -59 0 -2 -15 4 -32 14 -170 97 -400 29 -505
-149 -105 -178 -44 -486 133 -667 129 -132 292 -166 449 -92 79 37 160 136
187 229 6 18 81 -193 83 -234 3 -42 -11 -75 -43 -104 -37 -35 -128 -75 -183
-80 -40 -4 -50 -1 -78 25 l-33 28 -139 -34 c-92 -23 -139 -40 -139 -48 0 -27
40 -91 76 -123 99 -86 232 -95 423 -28 180 63 294 145 342 247 27 57 29 167 5
259 -9 34 -62 180 -117 325 -56 144 -114 296 -129 337 -16 41 -46 120 -67 175
-54 142 -49 138 -118 106z m-148 -322 c114 -55 206 -277 167 -407 -46 -158
-232 -204 -342 -84 -65 70 -122 216 -122 311 0 48 30 119 65 151 32 30 119 59
159 53 17 -2 50 -13 73 -24z"/>
<path d="M5961 20764 c-52 -30 -97 -54 -101 -54 -4 0 -12 -6 -18 -13 -8 -9 2
-34 35 -92 25 -44 60 -107 78 -140 18 -33 43 -78 55 -100 39 -68 49 -89 46
-93 -2 -2 -21 1 -41 7 -66 18 -174 8 -239 -23 -271 -129 -305 -438 -80 -752
164 -231 448 -276 626 -100 54 52 74 89 98 170 l16 59 35 -61 34 -61 108 60
c101 57 107 62 93 78 -9 10 -16 20 -16 23 0 4 -17 37 -39 75 -21 37 -157 282
-301 543 -144 261 -270 487 -279 502 l-16 26 -94 -54z m124 -653 c67 -31 146
-128 195 -241 19 -42 24 -73 25 -131 0 -66 -3 -81 -28 -117 -68 -103 -218
-116 -311 -26 -120 117 -185 292 -149 401 36 105 167 161 268 114z"/>
<path d="M15752 20667 c-39 -73 -79 -143 -87 -157 -8 -14 -68 -122 -133 -240
-65 -118 -130 -235 -144 -260 -169 -303 -210 -382 -202 -390 8 -7 401 -227
614 -343 41 -23 104 -58 140 -78 49 -28 68 -34 76 -26 6 7 32 51 58 99 l47 87
-23 14 c-13 8 -70 41 -128 73 -58 31 -121 66 -140 77 -19 11 -69 38 -110 60
-162 88 -185 103 -182 119 1 9 21 49 43 89 23 41 55 99 71 129 17 30 49 89 73
130 23 41 45 82 48 90 4 8 11 22 17 30 6 8 71 124 144 257 l134 243 -80 45
c-44 25 -83 45 -86 45 -3 0 -13 6 -21 14 -45 39 -52 33 -129 -107z"/>
<path d="M16880 20172 c0 -8 -19 -39 -90 -148 l-27 -41 64 -39 c35 -21 70 -43
76 -49 7 -5 28 -19 46 -29 34 -19 34 -19 50 3 43 57 114 185 105 188 -6 2 -53
30 -105 63 -90 57 -119 70 -119 52z"/>
<path d="M13284 19845 c3 -36 9 -95 12 -132 9 -121 15 -167 20 -172 3 -3 28
-17 56 -31 71 -34 75 -43 233 -495 5 -12 -7 -4 -30 20 -113 123 -215 220 -250
240 -22 13 -98 49 -170 81 -71 31 -135 61 -142 66 -13 10 -22 0 -18 -22 3 -18
13 -125 21 -227 3 -39 7 -80 8 -90 3 -20 25 -32 159 -93 101 -46 166 -88 306
-200 117 -93 219 -191 246 -237 14 -23 38 -40 92 -64 40 -17 72 -33 71 -35 -2
-1 -107 35 -233 82 -127 46 -233 84 -237 84 -3 0 -11 -13 -17 -30 -5 -16 -12
-30 -15 -30 -3 0 -1 11 4 25 11 28 48 15 -375 135 -137 39 -255 72 -261 74 -9
4 -91 -257 -87 -274 2 -5 71 -26 450 -135 105 -30 198 -53 206 -49 8 3 32 -2
53 -11 22 -9 59 -23 84 -32 25 -8 47 -17 49 -18 1 -2 -39 -118 -89 -257 -51
-139 -108 -296 -127 -348 -74 -203 -82 -211 -30 -30 19 63 30 116 26 118 -4 2
-22 -4 -39 -13 -18 -9 -39 -18 -48 -21 -10 -2 -44 -11 -77 -19 -82 -21 -180
-21 -232 0 -70 28 -101 105 -73 179 22 59 154 93 376 95 l50 1 -7 63 c-5 34
-11 91 -14 127 -4 36 -12 68 -18 72 -12 7 -152 2 -197 -6 -139 -28 -227 -67
-299 -132 -126 -113 -145 -272 -54 -460 87 -182 278 -277 478 -239 36 6 65 11
65 10 0 0 -29 -81 -65 -179 -36 -98 -65 -182 -65 -188 0 -16 212 -308 220
-303 4 2 22 46 40 97 18 51 43 120 56 153 25 66 215 588 274 755 21 58 43 116
48 130 6 14 30 79 53 145 23 66 45 124 49 128 6 7 121 -28 220 -67 12 -4 25
21 58 110 62 167 64 159 -37 195 -47 16 -85 30 -87 32 -1 1 -5 22 -8 47 -3 25
-8 56 -11 70 -12 69 -36 209 -41 240 -3 19 -7 41 -10 49 -2 8 -7 30 -10 50
-12 79 -76 360 -108 474 -46 162 -90 280 -129 345 -35 58 -46 65 -275 166
l-104 46 6 -65z"/>
<path d="M16433 19452 l-261 -417 77 -50 c137 -89 140 -90 157 -68 8 10 19 27
26 38 6 11 113 185 239 386 126 201 231 372 234 380 3 8 -6 20 -22 30 -16 8
-65 38 -109 66 l-81 51 -260 -416z"/>
<path d="M17404 19788 c-17 -20 -146 -185 -166 -213 -4 -5 -20 -26 -36 -45
-15 -19 -100 -127 -188 -240 -87 -113 -164 -212 -171 -220 -130 -162 -251
-324 -247 -331 3 -5 33 -30 67 -56 34 -26 64 -50 67 -54 3 -3 16 -12 28 -18
21 -11 26 -10 40 10 9 13 28 36 42 52 l26 29 2 -43 c12 -198 171 -349 368
-350 136 0 253 58 370 184 201 217 241 447 110 625 -78 105 -190 160 -318 156
l-68 -2 48 62 c196 248 251 321 244 326 -48 40 -191 150 -194 150 -2 0 -13
-10 -24 -22z m4 -674 c106 -44 151 -149 113 -262 -36 -107 -150 -240 -240
-283 -132 -62 -278 38 -274 188 1 63 13 97 61 172 103 164 228 232 340 185z"/>
<path d="M4951 19714 c-176 -47 -320 -192 -349 -354 -24 -132 9 -262 102 -400
39 -58 145 -170 162 -170 7 0 14 -3 16 -7 2 -5 21 -18 43 -30 135 -72 301 -57
449 43 180 120 248 268 212 459 -4 19 -8 35 -10 35 -2 0 -56 -25 -120 -56
-112 -53 -116 -56 -109 -82 22 -88 -11 -157 -94 -198 -87 -43 -169 -25 -246
53 -36 36 -38 39 -20 51 40 30 489 344 503 352 12 7 9 15 -15 50 -78 112 -186
204 -282 240 -72 27 -172 33 -242 14z m178 -241 c20 -14 44 -36 53 -48 17 -22
16 -23 -53 -71 -38 -27 -109 -77 -157 -112 l-87 -63 -16 23 c-41 54 -49 140
-20 204 48 106 182 138 280 67z"/>
<path d="M3905 19393 c-39 -32 -83 -70 -99 -84 l-28 -26 79 -94 c43 -52 161
-193 263 -314 101 -121 197 -236 214 -255 17 -20 42 -50 56 -66 119 -146 256
-304 262 -304 5 0 51 36 103 81 l95 80 -182 217 c-100 119 -207 246 -238 282
-30 36 -73 88 -95 115 -22 27 -67 80 -100 119 -33 39 -94 111 -135 161 -41 49
-86 102 -100 118 l-25 27 -70 -57z"/>
<path d="M10737 19023 c-1 -1 -52 -4 -112 -8 -61 -3 -126 -8 -145 -10 -19 -2
-87 -7 -150 -11 -63 -4 -126 -8 -140 -10 -14 -1 -44 -2 -68 -3 -24 -1 -41 -4
-39 -8 4 -6 14 -146 20 -270 0 -11 12 -16 37 -15 26 0 332 21 395 27 28 2 95
7 150 11 55 3 116 7 136 8 31 2 36 0 35 -18 -1 -20 5 -21 107 -24 l107 -3 0
-271 c0 -149 -2 -269 -4 -267 -4 3 -8 60 -21 274 -2 37 17 36 -340 10 -16 -1
-81 -6 -144 -10 -159 -10 -178 -14 -229 -52 -165 -124 -140 -460 57 -738 88
-124 331 -395 355 -395 6 0 36 18 67 40 l57 40 -92 93 c-50 50 -103 106 -117
122 -44 54 -136 199 -162 256 -22 49 -29 72 -42 149 -5 25 21 90 46 116 29 31
71 42 189 49 52 3 115 8 140 10 25 2 89 7 143 10 l97 7 0 -375 0 -376 90 -62
c50 -33 90 -63 90 -65 0 -2 -19 -2 -42 -1 -138 9 -252 -44 -333 -153 l-24 -33
76 -112 76 -113 66 68 c103 105 186 137 262 99 20 -10 47 -35 59 -56 18 -31
21 -46 15 -88 -15 -116 -91 -172 -241 -179 -110 -5 -197 27 -304 113 -100 80
-216 213 -302 345 l-57 89 -53 4 c-29 2 -70 5 -90 7 -21 1 -38 1 -38 -1 0 -5
32 -56 40 -63 3 -3 50 -72 105 -154 290 -433 477 -571 763 -561 218 8 365 150
377 365 8 161 -51 289 -170 365 l-50 32 1 727 c0 399 4 729 7 732 3 4 58 6
121 5 64 -1 117 2 117 6 3 20 5 269 2 278 -2 7 -133 10 -383 10 l-379 0 -6 23
c-5 21 -10 23 -66 20 -33 -2 -61 -4 -62 -5z"/>
<path d="M3729 18761 l-85 -89 150 -264 c83 -145 159 -277 169 -292 l18 -27
-23 12 c-24 12 -331 186 -360 204 -22 14 -61 36 -137 77 l-63 35 -82 -84 c-44
-47 -82 -89 -84 -93 -2 -5 16 -41 40 -80 24 -39 50 -84 59 -98 9 -15 66 -109
127 -209 62 -102 103 -179 94 -175 -9 3 -51 25 -92 47 -41 23 -124 68 -185 99
-60 32 -152 81 -204 109 l-94 50 -83 -87 c-46 -49 -84 -91 -84 -95 0 -3 206
-108 458 -233 l457 -227 87 87 c48 48 88 90 88 93 0 5 -212 359 -272 454 -14
22 -33 55 -42 73 l-17 33 48 -27 c232 -130 396 -221 454 -252 l69 -36 62 66
c35 36 73 77 86 91 l23 24 -24 44 c-24 43 -204 378 -291 541 -24 46 -63 117
-85 158 -23 41 -51 94 -63 118 -12 23 -24 42 -28 42 -3 0 -44 -40 -91 -89z"/>
<path d="M9050 18789 c-14 -5 -175 -52 -359 -104 -184 -53 -336 -97 -338 -99
-2 -1 10 -47 27 -102 34 -113 39 -153 9 -79 -11 28 -29 69 -39 92 -11 24 -20
47 -20 53 0 12 -23 13 -36 1 -5 -4 -45 -22 -89 -39 -44 -17 -168 -66 -275
-109 -107 -44 -203 -82 -212 -86 -15 -5 -16 -11 -7 -34 20 -50 47 -117 69
-173 12 -30 25 -58 29 -63 4 -4 108 33 232 83 123 50 259 105 301 121 43 17
81 36 85 43 8 13 201 72 209 64 9 -10 185 -640 180 -646 -3 -3 -6 -1 -6 5 0 6
-7 28 -16 48 l-16 38 -28 -57 c-71 -141 -171 -235 -282 -267 -94 -27 -146 87
-90 196 37 74 141 165 245 218 l66 33 -106 89 c-59 48 -112 88 -118 88 -38 0
-156 -74 -221 -139 -104 -103 -137 -207 -107 -337 26 -113 95 -211 189 -269
92 -56 239 -86 338 -67 65 12 154 58 198 102 21 22 40 38 42 36 1 -2 23 -76
48 -164 l45 -159 119 -39 c65 -22 128 -43 139 -47 39 -16 96 -32 101 -28 2 3
-24 99 -57 214 -34 115 -65 223 -69 239 -5 17 -17 62 -28 100 -16 59 -222 774
-251 872 l-9 32 61 19 c34 11 85 25 112 32 28 7 53 16 57 19 12 11 -68 276
-83 278 -8 0 -25 -3 -39 -8z"/>
<path d="M6467 18594 c-17 -6 -54 -22 -82 -34 -47 -22 -113 -51 -197 -87 -21
-9 -38 -19 -38 -22 1 -3 66 -54 145 -113 l145 -107 85 39 c160 73 212 79 365
40 104 -26 205 -67 314 -125 61 -32 94 -44 109 -40 12 4 -14 -14 -57 -39 -44
-25 -81 -46 -83 -46 -2 0 -39 -20 -81 -44 -42 -25 -109 -62 -148 -83 -297
-161 -482 -269 -474 -278 4 -5 34 -57 65 -115 69 -126 74 -133 89 -122 6 5 36
23 66 39 30 16 118 65 195 108 77 43 169 93 205 113 36 19 80 43 98 54 38 23
38 23 82 -57 18 -33 44 -79 57 -102 l24 -41 -68 -38 c-37 -20 -79 -44 -93 -52
-14 -9 -45 -26 -70 -39 -159 -83 -189 -255 -83 -468 73 -144 214 -263 380
-320 178 -61 327 -49 449 37 l42 30 78 -33 c51 -21 93 -48 125 -78 l48 -46 68
38 c37 21 83 45 101 54 17 9 32 20 32 24 0 4 -26 29 -57 54 -62 51 -149 98
-200 109 -34 8 -35 14 -14 92 14 51 4 101 -36 176 -50 92 -109 155 -157 163
-131 25 -265 -77 -272 -208 -3 -60 14 -100 59 -140 l32 -27 -30 -25 c-104 -87
-342 -34 -401 90 -39 83 -32 185 17 234 15 15 116 77 224 137 109 60 200 114
202 121 2 6 -6 28 -20 50 -13 21 -41 69 -62 108 -37 69 -106 193 -151 272
l-24 41 118 66 c64 36 121 67 126 69 6 2 -17 50 -49 108 -32 57 -63 114 -69
126 -14 29 -17 28 -74 -2 -44 -24 -47 -24 -72 -8 -192 128 -590 308 -742 337
-157 29 -182 30 -241 10z"/>
<path d="M18058 18550 c-81 -21 -133 -49 -205 -107 -284 -230 -320 -513 -93
-743 103 -105 197 -151 310 -152 67 0 190 28 190 44 0 5 -32 56 -71 113 l-72
104 -30 -15 c-93 -49 -216 24 -238 139 -12 67 10 138 60 196 l21 24 72 -76
c283 -294 374 -387 381 -387 14 0 105 100 145 160 66 100 86 163 86 270 0 89
-2 100 -36 170 -102 210 -312 315 -520 260z m240 -234 c68 -35 101 -92 98
-168 -3 -62 -14 -92 -51 -136 l-27 -32 -65 67 c-36 38 -97 101 -136 141 l-72
72 30 25 c62 51 159 64 223 31z"/>
<path d="M14205 18280 c-36 -58 -124 -245 -118 -251 10 -9 579 -299 587 -299
4 0 83 148 134 251 1 3 -84 50 -190 104 -106 54 -239 122 -296 151 -115 60
-109 58 -117 44z"/>
<path d="M14847 17953 c-59 -88 -127 -207 -120 -213 5 -4 123 -78 263 -165
140 -87 265 -165 276 -172 21 -13 25 -8 99 108 64 100 75 124 63 134 -13 13
-544 345 -551 345 -3 0 -16 -17 -30 -37z"/>
<path d="M18920 17813 c-70 -58 -121 -100 -190 -155 -165 -132 -266 -213 -270
-218 -3 -3 -27 -23 -55 -45 -27 -21 -52 -42 -55 -45 -3 -3 -33 -28 -67 -54
-35 -27 -63 -52 -63 -56 0 -6 114 -152 150 -193 4 -4 88 57 186 135 287 229
377 279 458 257 49 -13 93 -63 107 -121 7 -27 18 -47 23 -45 6 2 55 19 108 36
54 18 100 36 103 41 8 13 -20 92 -48 137 -15 24 -46 55 -69 70 -35 24 -53 28
-122 30 -45 1 -83 3 -85 3 -2 0 20 18 48 41 34 27 49 45 43 53 -22 28 -144
176 -145 175 -1 0 -27 -21 -57 -46z"/>
<path d="M13775 17751 c-13 -6 -53 -72 -109 -181 l-88 -173 34 8 c71 17 191
14 254 -6 51 -16 63 -24 82 -58 40 -72 24 -145 -48 -218 -41 -42 -148 -103
-216 -123 -33 -10 -43 -19 -54 -48 -31 -86 -10 -145 71 -194 53 -33 101 -39
153 -21 46 16 130 82 171 135 17 21 35 44 41 51 27 31 76 136 94 199 15 54 19
94 16 172 -2 55 -7 115 -10 131 -13 59 -75 171 -123 218 -78 78 -211 132 -268
108z"/>
<path d="M15378 17497 l-86 -112 26 -25 c15 -14 53 -44 84 -68 l57 -43 -181
-232 c-100 -128 -199 -254 -220 -281 -45 -57 -50 -53 -9 7 15 23 33 52 39 64
12 21 11 21 -26 11 -66 -18 -201 -16 -276 4 -71 19 -149 65 -160 93 -31 83 46
158 164 159 108 1 191 -19 292 -70 27 -13 51 -24 55 -24 9 -1 10 12 18 138 3
58 6 108 7 111 2 23 -10 35 -69 64 -144 72 -258 87 -370 47 -175 -61 -280
-262 -242 -462 35 -187 168 -331 333 -361 l66 -12 -23 -27 c-12 -14 -47 -59
-77 -98 -30 -40 -60 -77 -65 -84 -6 -6 -22 -27 -37 -46 l-26 -35 54 -169 c29
-93 57 -173 62 -178 7 -7 57 52 250 302 15 19 52 66 83 105 55 70 295 376 497
637 59 76 109 137 112 137 3 1 47 -33 99 -74 52 -40 98 -73 101 -72 6 2 57
-43 244 -217 17 -15 84 -78 150 -140 65 -61 124 -116 130 -121 6 -6 48 -45 93
-88 l82 -77 63 67 c35 37 80 85 101 107 l38 41 -64 60 c-35 33 -113 105 -172
160 -60 55 -127 118 -151 140 -23 22 -90 85 -149 140 -60 55 -119 110 -131
123 -13 12 -27 22 -33 22 -5 0 -34 -28 -65 -61 -31 -34 -56 -59 -56 -55 0 9
68 96 87 112 10 9 -29 45 -184 165 -109 85 -205 159 -213 166 -129 104 -206
163 -210 162 -3 0 -44 -51 -92 -112z"/>
<path d="M6285 17504 c-38 -30 -77 -61 -85 -67 -8 -7 -76 -59 -150 -117 -74
-57 -137 -107 -140 -110 -3 -3 -34 -28 -70 -55 -96 -73 -96 -72 -75 -95 23
-26 14 -26 -15 0 l-23 20 -81 -78 c-45 -43 -99 -96 -121 -116 -22 -21 -111
-108 -199 -193 l-158 -155 73 -76 c62 -63 66 -69 24 -35 -27 23 -61 53 -74 67
-14 14 -30 26 -37 26 -6 0 -38 -30 -70 -66 -33 -37 -68 -76 -79 -88 -11 -13
-51 -58 -90 -100 -38 -43 -79 -88 -90 -100 -153 -168 -215 -239 -215 -247 0
-3 34 -37 77 -75 107 -97 127 -114 134 -114 6 0 91 92 195 210 21 24 46 51 54
60 48 52 115 126 190 210 47 52 112 119 144 150 33 30 71 67 84 83 14 15 30
27 35 27 6 0 56 -48 113 -107 l102 -108 -20 -24 c-15 -20 -118 -135 -183 -205
-5 -6 -46 -51 -90 -101 -44 -49 -91 -102 -105 -116 -68 -71 -136 -153 -146
-177 -26 -59 2 -153 58 -195 24 -18 46 -20 285 -24 277 -5 318 0 342 45 9 17
0 29 -71 93 -45 41 -101 92 -126 114 l-44 40 21 24 c11 12 51 57 88 99 37 41
76 84 85 94 9 11 38 42 64 70 l48 51 149 -154 c313 -323 340 -349 361 -349 12
0 68 9 126 19 58 11 125 22 150 26 25 4 51 8 58 9 7 1 12 6 12 12 -1 5 -83 94
-183 198 -100 104 -204 212 -231 240 -27 28 -157 163 -290 300 -288 298 -274
283 -311 324 l-30 33 84 80 c47 43 89 79 93 79 5 0 42 27 84 60 41 33 77 60
78 60 2 0 48 -57 102 -127 54 -71 126 -162 159 -204 33 -42 72 -91 86 -110 15
-19 64 -81 109 -139 99 -128 122 -157 180 -231 25 -31 74 -93 108 -138 l64
-81 66 4 c37 3 119 8 182 11 63 4 118 10 121 14 4 3 -92 132 -212 286 -121
154 -230 293 -242 309 -12 16 -42 55 -67 86 -25 32 -57 73 -71 91 -256 327
-329 423 -329 428 0 3 9 12 21 19 11 7 54 40 95 73 l73 60 -32 43 c-72 97
-142 185 -147 185 -3 0 -36 -25 -75 -55z"/>
<path d="M2655 17426 c-101 -25 -207 -96 -272 -184 -15 -20 -31 -39 -34 -42
-3 -3 -14 -20 -24 -39 -86 -168 -81 -341 13 -491 48 -77 86 -115 170 -171 115
-76 168 -93 292 -93 96 -1 111 2 170 29 62 28 153 94 194 139 54 61 107 160
127 240 11 44 8 180 -5 236 -15 64 -73 158 -135 221 -141 140 -323 197 -496
155z m214 -276 c70 -37 151 -115 176 -167 44 -92 28 -189 -43 -263 -59 -60
-125 -79 -214 -61 -99 21 -225 118 -267 205 -66 135 17 305 157 323 20 3 38 6
40 8 9 8 102 -19 151 -45z"/>
<path d="M19317 17097 c-26 -5 -47 -12 -45 -16 2 -4 22 -54 46 -112 l43 -104
48 3 c80 6 127 -30 181 -136 34 -69 22 -118 -42 -163 l-29 -21 -32 25 c-18 14
-83 75 -144 135 -62 61 -133 125 -159 143 -114 78 -248 69 -352 -26 -177 -159
-77 -465 184 -566 l61 -24 -34 -41 -34 -42 53 -84 c28 -45 60 -93 69 -106 l17
-23 29 38 c62 83 88 103 414 315 207 135 246 179 253 285 6 99 -40 210 -146
355 -105 143 -227 196 -381 165z m-162 -445 c17 -10 68 -54 114 -98 46 -43 87
-80 92 -82 19 -7 7 -21 -43 -53 -78 -49 -101 -58 -155 -55 -97 6 -186 90 -185
176 2 103 95 162 177 112z"/>
<path d="M15755 16479 c-77 -19 -149 -63 -226 -139 -63 -62 -81 -88 -107 -150
-53 -131 -76 -283 -76 -515 0 -126 9 -284 16 -290 9 -7 121 -55 124 -53 1 2 5
50 9 108 10 163 13 196 19 237 3 21 8 58 11 83 8 60 32 164 51 220 33 98 98
176 173 207 73 31 169 -4 209 -77 25 -45 18 -65 -52 -138 -77 -81 -141 -154
-141 -161 0 -3 22 -59 49 -124 l49 -119 136 141 c138 144 143 147 211 141 36
-3 85 -36 108 -72 l20 -31 -29 -42 c-36 -53 -89 -165 -89 -187 0 -9 -4 -19 -9
-22 -4 -3 -11 -22 -15 -43 -23 -133 -16 -221 25 -307 20 -42 99 -133 158 -180
32 -25 161 -86 183 -86 16 0 310 231 303 238 -2 2 -27 5 -57 8 -226 20 -447
211 -393 340 l13 32 62 -31 c51 -25 73 -30 128 -30 151 2 313 92 396 221 l39
60 25 -31 c14 -18 46 -56 70 -85 l44 -53 37 33 c20 18 57 49 81 68 24 19 58
47 74 61 l30 26 -55 69 c-71 90 -82 104 -94 118 -6 6 -78 94 -160 196 -195
241 -179 225 -202 209 -57 -42 -203 -164 -203 -170 0 -3 45 -61 100 -129 97
-118 105 -132 100 -175 -7 -62 -85 -129 -166 -141 -70 -10 -107 9 -170 87 -31
38 -61 69 -66 69 -15 0 -51 -21 -75 -43 -26 -23 -39 -18 -25 10 5 10 10 48 11
84 2 61 -1 70 -31 110 -18 24 -48 52 -67 62 -40 24 -124 30 -166 13 l-30 -13
1 70 c2 121 -48 222 -141 284 -52 35 -150 49 -220 32z"/>
<path d="M1918 16431 c-79 -26 -164 -109 -209 -205 -38 -81 -45 -181 -19 -266
l17 -58 -62 34 -63 34 -56 -98 c-31 -54 -56 -103 -56 -108 1 -7 463 -278 780
-456 l66 -37 62 107 c34 59 62 111 62 114 0 3 -104 66 -231 140 -337 194 -381
235 -381 347 0 105 64 182 152 183 45 0 139 -41 277 -123 48 -28 113 -66 143
-82 30 -17 71 -41 90 -54 19 -12 38 -23 42 -23 4 0 28 -13 54 -30 l47 -30 64
111 c52 89 62 113 52 125 -6 8 -15 14 -19 14 -5 0 -41 19 -82 43 -40 24 -93
55 -118 69 -25 15 -112 65 -195 113 -82 48 -175 98 -205 112 -60 27 -165 39
-212 24z"/>
<path d="M10573 16328 c9 -133 10 -142 57 -376 59 -295 68 -343 75 -412 2 -14
6 -54 10 -90 11 -94 13 -327 3 -418 -59 -578 -358 -1158 -923 -1787 -20 -22
-62 -71 -93 -110 -31 -38 -60 -72 -63 -75 -13 -10 -165 -237 -192 -285 -147
-268 -231 -504 -262 -745 -2 -13 -7 -47 -11 -75 -8 -61 -8 -313 0 -375 4 -25
9 -63 12 -85 42 -320 197 -686 422 -1000 119 -165 227 -284 435 -478 122 -114
385 -297 562 -391 39 -21 74 -42 79 -46 20 -19 -171 -439 -286 -629 -21 -34
-38 -65 -38 -67 0 -7 -86 -137 -154 -234 -325 -461 -736 -842 -1226 -1137
-152 -92 -384 -208 -543 -272 -120 -49 -367 -134 -419 -145 -13 -3 -66 -17
-118 -31 -52 -13 -133 -32 -180 -41 -47 -9 -94 -18 -105 -20 -101 -20 -280
-41 -415 -50 -191 -13 -623 -6 -705 11 -11 3 -40 7 -65 9 -45 5 -102 13 -150
22 -14 2 -54 9 -90 14 -36 6 -81 15 -100 20 -19 5 -46 11 -60 14 -71 12 -265
67 -400 113 -400 135 -794 344 -1135 602 -55 42 -102 78 -105 81 -3 3 -45 40
-95 82 -85 72 -269 250 -345 334 -29 32 -103 118 -179 209 -92 110 -267 372
-361 540 -55 98 -180 354 -180 368 0 7 -4 17 -8 22 -14 15 -142 355 -141 370
1 3 -8 36 -19 73 -24 78 -68 253 -76 297 -2 17 -10 55 -16 85 -6 30 -13 71
-16 90 -2 19 -9 62 -14 95 -5 33 -12 94 -16 135 -3 41 -8 77 -11 80 -7 6 8
-258 21 -385 3 -27 8 -81 11 -120 4 -38 8 -81 11 -95 2 -14 9 -63 14 -110 10
-75 18 -136 36 -245 2 -16 9 -52 14 -80 5 -27 12 -66 14 -85 3 -19 8 -44 10
-55 2 -11 12 -56 21 -100 9 -44 19 -91 21 -104 3 -12 12 -53 20 -90 9 -36 17
-73 19 -81 51 -233 196 -697 313 -1000 130 -339 362 -829 499 -1055 7 -11 15
-27 19 -35 20 -40 169 -282 259 -420 205 -314 413 -588 679 -895 34 -38 75
-85 91 -104 40 -47 456 -464 525 -527 165 -151 421 -364 585 -486 6 -4 24 -18
40 -31 17 -13 89 -65 160 -115 72 -51 135 -95 140 -99 50 -39 359 -232 509
-318 468 -267 956 -486 1451 -651 139 -46 374 -117 440 -132 22 -6 67 -17 100
-27 33 -9 71 -18 85 -21 14 -3 39 -9 55 -14 17 -5 46 -12 65 -15 19 -3 60 -12
90 -20 30 -7 69 -16 85 -18 17 -3 64 -12 105 -21 41 -8 93 -18 115 -21 22 -3
66 -11 98 -16 32 -6 74 -12 95 -15 20 -2 48 -6 62 -9 14 -2 45 -7 70 -10 25
-3 61 -7 80 -10 67 -9 115 -14 170 -20 30 -3 78 -8 105 -11 53 -6 91 -8 310
-20 255 -14 803 -8 1025 11 170 14 285 26 390 40 19 3 55 7 80 10 39 5 221 33
330 50 19 4 69 13 110 21 41 9 86 18 100 20 38 6 160 34 205 46 22 5 51 12 65
14 43 8 249 63 390 105 716 214 1341 497 1995 902 41 25 120 77 130 85 6 4 27
18 49 31 135 83 652 472 741 558 7 6 34 30 61 54 187 160 546 510 699 682 39
44 81 91 94 105 68 74 271 325 378 467 166 222 271 376 460 681 155 248 377
681 503 979 23 55 48 114 56 130 26 59 152 402 193 529 48 147 139 458 146
498 3 15 9 38 15 52 5 15 7 26 5 26 -2 0 0 11 5 25 9 23 83 362 95 435 3 19
10 60 15 90 10 53 46 297 55 370 27 217 38 333 50 560 8 142 1 161 -10 26 -4
-50 -9 -99 -11 -110 -4 -20 -12 -71 -19 -123 -23 -171 -95 -448 -176 -680
-135 -389 -400 -869 -641 -1158 -9 -11 -33 -40 -53 -65 -106 -129 -302 -332
-435 -449 -158 -138 -245 -205 -420 -323 -165 -110 -293 -185 -455 -266 -101
-50 -308 -142 -320 -142 -4 0 -21 -7 -38 -14 -69 -32 -399 -134 -490 -152 -10
-2 -26 -5 -35 -8 -9 -3 -28 -7 -42 -10 -14 -3 -50 -10 -80 -16 -30 -6 -71 -13
-90 -16 -19 -2 -57 -8 -85 -14 -27 -5 -79 -12 -115 -16 -36 -3 -68 -8 -71 -10
-12 -7 -273 -18 -424 -18 -146 0 -359 10 -420 19 -16 2 -50 7 -75 10 -77 9
-187 26 -212 31 -13 3 -34 7 -48 10 -271 51 -559 140 -843 261 -80 34 -342
166 -404 204 -35 22 -65 39 -68 39 -20 0 -419 286 -515 370 -510 445 -866 928
-1115 1514 -52 124 -125 330 -125 355 0 14 30 44 133 133 25 23 46 40 247 205
226 185 348 302 515 493 162 185 347 484 454 735 73 169 154 414 185 555 32
144 48 223 56 279 6 36 13 77 15 91 14 90 26 198 32 289 13 194 7 546 -11 661
-3 14 -7 52 -11 85 -4 32 -8 62 -10 65 -1 3 -6 28 -9 55 -4 28 -9 57 -11 65
-2 8 -7 31 -10 50 -12 71 -65 268 -105 388 -153 466 -400 919 -730 1336 -199
252 -557 618 -791 807 -23 19 -60 49 -83 68 -74 61 -269 206 -350 260 l-79 53
6 -104z"/>
<path d="M19962 16288 l-83 -50 26 -45 c14 -25 25 -49 25 -53 0 -5 -30 -26
-67 -48 -38 -21 -140 -81 -228 -132 -202 -117 -259 -159 -286 -212 -38 -74
-17 -182 55 -282 33 -47 99 -107 112 -102 6 2 43 28 83 56 l71 52 -40 46 c-39
43 -50 82 -32 108 7 11 119 79 347 212 l120 70 18 -27 c10 -14 29 -47 43 -73
13 -27 28 -48 34 -48 17 0 170 94 170 105 -1 5 -18 39 -40 75 -27 44 -36 68
-29 75 5 5 69 44 141 86 73 42 133 80 134 85 2 5 -54 41 -123 80 l-126 71 -84
-49 c-47 -28 -86 -48 -87 -46 -1 1 -15 24 -30 51 -15 26 -30 47 -34 46 -4 0
-44 -23 -90 -51z"/>
<path d="M4518 15761 c-274 -373 -396 -553 -574 -851 -107 -179 -194 -328
-194 -331 0 -6 197 -129 207 -129 4 0 14 -6 22 -14 14 -13 22 -4 72 79 l56 94
174 -104 c96 -58 181 -109 189 -115 8 -5 42 -26 75 -45 33 -20 67 -40 75 -45
8 -6 76 -46 150 -90 74 -44 142 -85 150 -90 8 -5 82 -49 164 -98 l148 -90 37
18 c36 19 147 71 253 119 l58 26 -400 240 c-219 132 -407 245 -417 250 -10 6
-125 74 -255 153 l-237 143 31 52 c17 29 47 79 67 112 20 33 56 88 80 121 l43
62 217 -157 c119 -87 349 -254 510 -372 162 -118 305 -220 318 -227 19 -11 40
-6 165 39 79 28 158 58 177 65 l35 15 -50 34 c-27 19 -65 46 -84 60 -19 13
-100 72 -180 130 -80 59 -154 113 -165 121 -11 8 -60 44 -110 80 -49 36 -99
72 -110 80 -218 158 -529 384 -531 387 -2 2 28 46 66 98 71 96 80 113 57 122
-7 2 -58 39 -114 81 l-103 76 -72 -99z"/>
<path d="M17329 15569 c-62 -39 -115 -72 -117 -74 -4 -3 24 -53 72 -127 l36
-58 -37 -23 c-21 -13 -267 -167 -548 -342 -280 -175 -513 -321 -517 -324 -5
-4 -10 -58 -13 -121 -3 -63 -8 -148 -10 -187 -2 -45 0 -73 6 -73 6 0 29 12 52
28 23 15 51 32 62 39 11 6 263 164 559 350 297 186 545 340 550 342 6 2 13 7
16 10 3 3 15 11 27 18 20 11 24 7 69 -65 26 -42 64 -99 84 -127 21 -27 51 -77
68 -109 l31 -60 -41 -23 c-23 -13 -71 -40 -107 -60 -37 -20 -102 -56 -145 -81
l-79 -44 -18 23 c-10 13 -19 29 -19 34 0 6 -11 27 -25 48 -21 30 -32 37 -58
37 -41 0 -116 -46 -147 -89 -30 -43 -140 -394 -140 -449 0 -60 26 -100 72
-113 39 -10 64 -2 158 51 35 20 35 20 50 0 8 -11 28 -46 45 -78 16 -31 51 -94
77 -140 27 -46 48 -87 48 -92 0 -4 7 -13 15 -20 12 -10 26 -5 77 23 77 42 165
90 196 106 l22 12 -41 77 c-23 42 -45 82 -49 87 -4 6 -27 46 -50 90 -24 44
-48 88 -54 97 -6 9 -8 19 -6 21 9 8 355 198 364 200 8 2 126 -193 140 -228 3
-10 46 10 182 85 63 35 79 49 73 60 -13 22 -229 414 -268 485 -106 194 -154
275 -161 275 -4 0 -36 46 -71 103 -35 56 -73 116 -86 133 -13 17 -23 34 -23
37 0 3 -17 32 -38 64 -21 32 -42 65 -46 73 -15 34 -103 164 -112 167 -6 2 -62
-29 -125 -68z"/>
<path d="M930 15482 c-30 -75 -59 -151 -65 -168 -10 -27 -6 -42 49 -155 95
-195 286 -598 286 -604 0 -2 -122 46 -271 106 -150 60 -275 109 -279 109 -4 0
-30 -56 -57 -124 l-51 -125 42 -16 c22 -9 55 -23 71 -30 17 -7 98 -40 180 -73
199 -80 622 -251 660 -267 17 -7 73 -29 125 -50 52 -20 113 -45 135 -55 22
-10 43 -15 47 -12 4 4 27 58 53 121 45 109 50 141 23 141 -11 0 -125 45 -263
104 -16 7 -44 19 -62 26 -18 6 -35 22 -39 34 -4 11 -20 49 -35 83 -32 70 -79
181 -79 186 0 2 10 3 23 4 18 0 305 41 407 58 14 2 75 11 135 20 184 27 169
21 186 73 6 20 20 55 29 77 30 68 80 198 77 200 -1 1 -56 -8 -122 -21 -66 -13
-132 -26 -148 -29 -15 -3 -59 -12 -97 -20 -38 -8 -84 -17 -102 -20 -40 -7
-123 -22 -158 -30 -82 -17 -184 -37 -208 -41 -15 -2 -49 -9 -75 -15 -28 -7
-52 -8 -57 -3 -4 5 -31 63 -60 129 -29 66 -64 145 -77 175 -14 30 -43 96 -65
145 -60 137 -92 205 -98 205 -3 0 -30 -62 -60 -138z"/>
<path d="M20095 15521 c-231 -62 -397 -210 -436 -390 -41 -194 100 -470 276
-540 61 -24 215 -42 215 -25 0 5 -7 34 -16 64 -8 30 -23 84 -33 120 l-17 64
-50 1 c-80 2 -113 23 -149 94 -32 64 -22 145 26 212 22 31 97 84 106 75 3 -2
47 -96 99 -208 188 -404 173 -378 203 -365 44 19 157 90 200 126 104 86 160
207 156 336 -9 316 -277 517 -580 436z m282 -251 c61 -34 88 -83 88 -161 0
-52 -5 -72 -24 -100 -23 -34 -90 -89 -108 -89 -5 0 -20 24 -33 53 -13 28 -48
103 -77 166 -30 62 -52 119 -49 126 13 35 145 38 203 5z"/>
<path d="M20655 14519 c-125 -23 -200 -93 -225 -213 -12 -58 -9 -217 6 -351 7
-55 8 -97 5 -135 -1 -17 -33 -40 -63 -45 -49 -10 -111 55 -142 148 -31 93 -16
170 44 220 l32 28 -58 114 c-33 63 -62 115 -67 115 -4 0 -27 -18 -51 -40 -57
-53 -105 -148 -114 -230 -19 -164 58 -389 174 -503 173 -173 457 -106 491 116
9 56 8 151 -2 267 -19 233 -12 280 45 280 53 0 95 -57 125 -170 17 -66 11
-107 -25 -151 l-31 -39 58 -105 c32 -57 61 -105 64 -105 16 -1 91 84 115 131
29 57 37 142 22 239 -16 103 -84 258 -144 329 -62 72 -174 115 -259 100z"/>
<path d="M3639 14363 c-34 -89 -82 -214 -123 -323 -27 -69 -63 -163 -81 -210
-103 -265 -145 -378 -145 -388 0 -6 15 -15 33 -20 17 -6 78 -28 134 -50 89
-35 102 -38 108 -23 4 9 37 97 75 196 38 99 89 232 113 295 143 373 168 443
161 450 -10 10 -240 100 -255 100 -5 0 -14 -12 -20 -27z"/>
<path d="M4119 14293 c-6 -16 -40 -104 -75 -198 -35 -93 -68 -179 -74 -190 -5
-11 -37 -94 -70 -185 -71 -188 -76 -233 -38 -309 17 -34 35 -52 68 -68 108
-55 241 -6 431 159 132 115 197 164 249 187 41 18 46 19 72 3 36 -21 51 -61
45 -114 -8 -65 -16 -77 -61 -100 -72 -36 -114 -77 -145 -140 -60 -120 -32
-230 74 -285 108 -57 207 3 285 171 l38 83 144 48 c79 26 147 51 152 56 5 4 8
27 7 51 -3 72 -8 129 -13 133 -2 2 -64 -9 -136 -25 -73 -17 -135 -30 -137 -30
-3 0 -5 17 -5 38 0 49 -15 106 -46 167 -35 73 -75 117 -135 150 -80 43 -155
40 -255 -10 -90 -46 -201 -139 -280 -234 -50 -62 -76 -88 -60 -63 10 16 232
594 238 620 2 7 -22 22 -57 36 -136 54 -194 76 -199 76 -4 0 -11 -12 -17 -27z"/>
<path d="M18148 14112 c-64 -26 -120 -50 -124 -54 -7 -7 3 -39 37 -114 41 -93
61 -76 -233 -194 -145 -57 -270 -108 -278 -112 -15 -8 -455 -185 -540 -218
-115 -44 -128 -52 -134 -75 -3 -13 -18 -77 -32 -142 -14 -65 -28 -127 -30
-138 -16 -67 -16 -76 3 -66 10 5 167 69 348 142 182 72 349 140 372 150 23 11
45 19 48 19 4 0 21 6 38 14 18 8 124 51 237 96 113 45 219 88 235 95 63 27
108 45 114 45 3 0 14 -21 25 -48 10 -26 26 -66 37 -88 10 -23 21 -53 24 -67 7
-28 10 -28 90 7 16 8 67 28 112 46 l82 33 -17 41 c-159 400 -273 671 -284 673
-7 1 -66 -19 -130 -45z"/>
<path d="M16398 13408 c-51 -54 -94 -103 -96 -107 -2 -5 8 -17 21 -27 67 -53
162 -143 182 -173 20 -28 22 -38 13 -64 -6 -16 -85 -133 -175 -259 -90 -125
-162 -232 -159 -237 8 -13 95 -33 114 -26 10 3 34 27 55 53 20 26 49 61 65 78
15 17 49 57 77 89 27 32 64 74 82 94 19 20 53 66 78 102 102 151 114 236 53
359 -41 84 -105 156 -172 193 l-45 25 -93 -100z"/>
<path d="M20060 9552 c-109 -147 -144 -300 -95 -417 20 -50 79 -127 143 -189
28 -28 50 -51 48 -53 -1 -2 -47 7 -102 18 -130 28 -146 29 -151 4 -2 -11 -14
-69 -26 -130 l-23 -110 131 -27 c71 -16 153 -33 180 -39 28 -6 61 -12 75 -15
14 -2 86 -18 160 -34 74 -16 146 -32 160 -34 14 -2 68 -14 120 -26 52 -12 118
-26 145 -31 28 -6 61 -13 74 -15 13 -3 117 -25 230 -49 113 -24 221 -47 240
-50 19 -3 37 -7 40 -9 3 -2 22 -7 41 -10 19 -3 49 -9 65 -12 80 -18 76 -23
107 124 16 74 27 140 25 147 -3 7 -27 16 -54 20 -26 5 -52 9 -58 11 -19 4
-290 63 -315 67 -62 12 -375 80 -474 103 -269 63 -409 141 -468 262 -27 54
-32 76 -31 131 1 74 32 159 84 223 l30 38 -58 36 c-32 20 -76 48 -98 64 -22
15 -54 34 -71 43 l-31 16 -43 -57z"/>
<path d="M2068 9305 c-1 -1 -30 -5 -63 -8 -138 -13 -257 -70 -357 -170 -37
-37 -68 -72 -68 -78 0 -6 -9 -24 -21 -40 -19 -27 -63 -140 -73 -190 -3 -13 -7
-35 -10 -49 -13 -60 -19 -211 -21 -570 -1 -212 -5 -401 -9 -420 -40 -181 -161
-295 -323 -304 -165 -9 -315 98 -415 299 -33 65 -75 181 -82 229 -4 21 -8 41
-10 45 -13 22 -22 219 -12 281 34 223 118 346 299 440 75 39 85 48 81 67 -8
30 -92 254 -98 260 -17 17 -208 -77 -291 -145 -268 -215 -356 -548 -260 -980
59 -268 157 -457 316 -606 137 -129 299 -194 483 -194 303 0 540 187 616 485
33 126 33 128 35 598 1 248 5 461 9 475 4 14 9 36 12 50 16 77 78 149 161 187
170 78 378 -23 472 -229 114 -252 139 -490 66 -654 -33 -76 -130 -171 -217
-214 -38 -18 -68 -37 -68 -43 0 -6 21 -73 47 -149 55 -158 40 -150 163 -91
213 102 346 278 391 514 36 194 -3 473 -99 699 -30 72 -103 203 -122 220 -3 3
-25 29 -49 58 -97 117 -257 203 -406 218 -27 3 -55 7 -62 9 -6 2 -13 2 -15 0z"/>
<path d="M19913 8308 c-124 -41 -239 -161 -328 -343 -102 -208 -140 -356 -139
-545 0 -152 18 -223 78 -315 38 -58 123 -144 182 -186 36 -25 44 -27 54 -14 7
8 9 15 5 15 -5 0 -1 8 7 18 8 9 39 61 67 115 l53 98 -29 21 c-53 41 -118 115
-143 164 -22 43 -25 61 -24 144 1 100 16 158 74 285 58 128 160 228 246 241
66 10 144 -2 222 -34 l69 -27 -4 -55 c-3 -47 -21 -164 -38 -249 -2 -14 -24
-110 -49 -215 -54 -234 -59 -263 -60 -351 -4 -230 97 -410 279 -499 85 -41
147 -57 228 -57 214 0 389 137 494 385 90 213 101 438 33 660 -12 37 -20 70
-17 72 2 2 28 0 57 -6 76 -14 170 -13 170 3 0 6 23 70 50 140 28 71 50 130 50
133 0 2 -39 4 -87 4 -89 0 -159 13 -268 49 -78 25 -269 94 -348 125 -166 66
-462 177 -547 206 -124 43 -244 49 -337 18z m789 -516 c209 -91 317 -246 321
-457 2 -151 -61 -324 -152 -415 -129 -129 -338 -97 -424 65 -17 32 -22 57 -22
125 0 94 2 110 39 285 45 214 56 291 65 452 1 13 61 -7 173 -55z"/>
<path d="M1916 7245 c-141 -29 -300 -94 -449 -184 -280 -170 -429 -394 -443
-666 -22 -406 276 -808 655 -885 141 -28 267 -18 429 36 267 88 496 238 621
408 122 165 173 392 135 606 -19 115 -91 267 -182 388 -100 134 -218 219 -379
274 -73 26 -105 31 -202 33 -71 2 -143 -2 -185 -10z m357 -314 c147 -51 254
-157 309 -308 17 -46 22 -80 22 -163 0 -93 -3 -113 -28 -175 -80 -192 -275
-346 -569 -447 -83 -29 -104 -32 -212 -32 -102 -1 -129 2 -180 22 -153 59
-249 160 -302 317 -43 126 -26 292 39 387 10 14 18 31 18 36 0 21 142 154 214
201 141 91 314 165 421 177 27 4 52 8 55 11 11 10 161 -8 213 -26z"/>
<path d="M19293 6765 c-94 -17 -187 -69 -269 -150 -77 -77 -113 -127 -161
-225 -64 -132 -85 -285 -57 -418 30 -136 29 -128 13 -116 -8 6 -43 27 -79 46
-36 20 -200 111 -364 202 -165 91 -302 166 -306 166 -4 0 -19 -24 -35 -52 -72
-135 -88 -164 -96 -172 -19 -21 -7 -43 34 -64 23 -11 53 -28 67 -36 14 -8 61
-35 105 -59 135 -74 185 -102 330 -182 77 -43 165 -92 195 -108 30 -17 69 -39
85 -49 17 -10 37 -21 45 -25 8 -4 105 -57 215 -118 110 -61 232 -129 270 -150
39 -21 104 -57 145 -80 41 -23 100 -56 130 -72 223 -123 372 -206 467 -259 23
-13 44 -21 46 -16 3 4 16 27 30 52 13 25 43 78 66 119 22 41 41 77 41 81 0 7
-153 94 -390 223 -92 51 -472 263 -515 288 -115 68 -221 174 -254 255 -28 72
-38 188 -21 267 26 129 119 260 218 309 39 19 63 23 137 23 81 0 98 -4 170
-36 44 -19 226 -116 405 -216 179 -99 346 -192 373 -207 26 -14 68 -38 95 -52
150 -84 194 -106 202 -98 22 24 139 249 133 255 -5 4 -35 22 -68 40 -33 18
-73 41 -90 51 -16 10 -37 21 -45 25 -8 3 -71 38 -140 76 -69 39 -147 82 -175
97 -27 15 -106 59 -175 97 -442 248 -518 281 -685 297 -16 1 -58 -3 -92 -9z"/>
<path d="M2909 5959 c-74 -62 -174 -147 -224 -188 -49 -42 -92 -78 -95 -81 -3
-3 -86 -72 -185 -155 -99 -82 -182 -151 -185 -155 -5 -5 -246 -208 -448 -375
-49 -41 -81 -74 -78 -82 3 -7 45 -60 92 -118 92 -110 93 -111 139 -68 63 59
743 623 795 660 64 44 164 93 219 108 55 14 155 12 208 -5 67 -22 140 -69 191
-125 67 -73 95 -135 96 -210 0 -118 -71 -208 -339 -431 -71 -59 -146 -121
-166 -138 -19 -17 -57 -49 -84 -71 -27 -22 -65 -54 -85 -71 -19 -17 -69 -59
-110 -93 -41 -34 -84 -70 -95 -79 -11 -10 -57 -48 -102 -86 -46 -38 -83 -73
-83 -79 0 -8 49 -70 122 -152 14 -16 34 -40 45 -53 l18 -23 80 66 c44 37 91
76 105 88 14 12 79 67 145 122 66 54 122 102 125 105 4 4 54 46 145 122 11 9
70 58 130 108 180 151 276 203 393 214 60 6 163 -18 223 -51 73 -39 162 -139
189 -210 26 -69 24 -157 -5 -217 -25 -51 -124 -151 -275 -278 -147 -123 -511
-428 -556 -466 -17 -15 -53 -45 -80 -67 -26 -22 -67 -57 -91 -77 l-43 -37 91
-108 c50 -59 97 -108 104 -108 7 0 120 90 251 200 130 110 251 211 267 225 17
14 49 41 72 60 23 19 65 55 95 80 30 25 72 61 95 80 23 19 64 53 91 74 84 68
219 211 248 262 46 83 67 159 67 245 0 43 -5 88 -11 99 -6 11 -9 20 -6 20 10
0 -38 97 -79 160 -128 196 -304 292 -536 294 l-106 1 23 51 c28 64 42 138 38
200 -14 193 -164 403 -361 503 -62 31 -197 61 -278 61 l-70 0 31 28 c17 15 59
50 92 78 l60 51 -70 84 c-114 138 -85 138 -239 8z"/>
<path d="M17740 5856 c-47 -61 -85 -116 -85 -123 0 -7 58 -58 130 -113 l129
-102 28 34 c120 145 159 202 146 213 -20 18 -242 190 -253 197 -5 3 -48 -45
-95 -106z"/>
<path d="M18333 5514 c-15 -20 -57 -72 -92 -117 l-64 -80 29 -26 c17 -14 45
-37 64 -51 18 -14 70 -54 116 -90 45 -36 106 -84 135 -107 30 -23 205 -159
389 -303 184 -143 342 -266 350 -273 12 -10 104 -81 306 -239 8 -6 29 14 65
59 30 37 56 70 59 73 12 11 70 89 70 94 0 2 -64 55 -142 116 -79 61 -151 118
-161 126 -10 8 -69 54 -130 102 -62 48 -119 92 -127 99 -18 14 -215 168 -285
222 -27 22 -127 99 -220 173 -170 132 -265 207 -310 241 -23 17 -24 17 -52
-19z"/>
<path d="M18061 5152 c-25 -26 -71 -74 -102 -108 l-58 -61 71 -139 c316 -627
532 -1045 584 -1134 18 -30 29 -56 25 -58 -5 -1 -48 17 -97 41 -120 60 -213
101 -599 267 -181 78 -406 175 -498 214 l-168 73 -63 -66 c-114 -121 -155
-165 -153 -167 1 -1 74 -31 162 -67 351 -142 762 -310 790 -323 17 -7 53 -22
80 -32 52 -20 585 -236 620 -251 11 -5 36 -16 57 -25 20 -9 40 -16 45 -16 10
0 185 184 191 200 3 9 -54 127 -538 1105 -149 303 -276 560 -281 573 -5 12
-12 22 -16 22 -5 0 -28 -21 -52 -48z"/>
<path d="M4687 3974 c-102 -17 -317 -132 -305 -163 2 -4 46 -53 98 -108 l94
-100 61 37 c160 98 282 93 443 -17 36 -25 71 -51 78 -58 6 -6 25 -22 40 -36
49 -41 102 -113 129 -174 33 -74 35 -145 5 -212 -22 -51 -107 -169 -127 -177
-15 -6 -294 135 -391 197 -40 26 -74 47 -76 47 -3 0 -40 22 -83 48 -173 108
-312 155 -448 153 -306 -3 -543 -294 -481 -591 36 -173 203 -364 416 -477 133
-70 274 -102 454 -104 l53 -1 -37 -77 c-47 -95 -55 -125 -35 -143 59 -54 217
-178 226 -178 8 0 9 6 9 33 0 17 57 152 81 190 46 75 389 520 429 557 3 3 55
68 116 145 204 258 227 304 228 455 1 107 -14 152 -90 271 -39 62 -154 186
-220 237 -158 123 -298 199 -429 232 -99 26 -151 29 -238 14z m-252 -888 c38
-18 117 -60 175 -93 135 -78 309 -166 383 -193 31 -12 57 -24 57 -27 0 -12
-153 -183 -197 -220 -160 -134 -381 -144 -583 -26 -83 49 -190 155 -218 216
-26 56 -35 137 -22 188 23 86 107 168 193 190 54 13 138 -1 212 -35z"/>
<path d="M16770 3839 c-249 -64 -559 -321 -686 -570 -81 -161 -78 -327 10
-531 l16 -37 125 75 c69 41 125 79 125 83 0 3 -10 34 -22 66 -28 77 -34 209
-12 261 54 130 249 297 400 344 140 43 248 -1 363 -148 l33 -43 -35 -52 c-52
-79 -242 -297 -393 -451 -91 -93 -166 -209 -204 -317 -28 -80 -31 -216 -6
-299 63 -212 261 -360 480 -360 224 0 516 212 649 470 30 59 82 212 93 273 3
20 8 37 11 37 3 0 28 -19 56 -43 29 -24 68 -53 88 -64 l37 -21 121 96 c117 94
134 112 109 112 -23 0 -143 79 -194 127 -46 44 -184 201 -275 313 -20 25 -88
108 -150 185 -63 77 -121 149 -129 161 -30 43 -126 151 -188 212 -125 123
-260 162 -422 121z m600 -812 c132 -174 163 -310 109 -480 -35 -110 -118 -223
-223 -302 -154 -116 -318 -118 -420 -4 -91 100 -95 227 -12 349 16 24 78 98
136 163 140 158 212 248 267 331 l46 69 19 -24 c11 -13 46 -59 78 -102z"/>
<path d="M6268 3637 l-86 -150 130 -75 c71 -41 132 -72 134 -69 3 3 43 70 88
149 l83 143 -86 50 c-47 28 -106 63 -131 77 l-45 26 -87 -151z"/>
<path d="M5937 3062 c-43 -75 -83 -144 -88 -152 -5 -8 -54 -94 -109 -190 -55
-96 -104 -182 -109 -190 -9 -13 -180 -310 -240 -414 -13 -22 -74 -130 -137
-238 -62 -108 -115 -202 -116 -209 -4 -14 244 -161 254 -151 5 6 267 456 351
602 134 238 373 651 388 672 10 15 19 29 19 32 0 3 29 55 65 115 l64 111 -72
41 c-40 23 -97 57 -128 75 -31 19 -58 34 -60 34 -2 0 -39 -62 -82 -138z"/>
<path d="M15750 3139 c-63 -34 -119 -64 -123 -69 -5 -4 6 -110 23 -236 18
-126 34 -242 36 -259 2 -16 6 -46 9 -65 3 -19 8 -53 10 -75 3 -22 10 -74 16
-115 6 -41 12 -84 14 -95 1 -11 6 -47 10 -80 4 -33 9 -67 10 -76 2 -9 6 -40
10 -70 9 -76 53 -314 69 -376 8 -29 13 -53 11 -53 -1 0 -56 53 -122 118 -65
64 -170 164 -233 221 -63 58 -157 143 -209 190 -114 104 -96 88 -211 191 -52
47 -120 108 -150 136 -148 138 -193 174 -204 165 -6 -4 -65 -37 -131 -71 -66
-35 -124 -66 -128 -70 -5 -4 29 -40 75 -81 46 -40 85 -75 88 -78 3 -3 23 -21
45 -40 22 -19 72 -62 110 -96 39 -34 131 -115 205 -180 74 -65 153 -134 175
-154 22 -20 92 -81 155 -136 63 -55 120 -104 126 -110 6 -5 108 -95 226 -199
l216 -189 7 -51 c4 -28 8 -59 10 -69 8 -42 18 -164 16 -192 -8 -140 -108 -235
-304 -292 l-28 -8 82 -117 c79 -114 82 -117 113 -111 147 29 277 118 340 233
62 114 75 291 41 565 -2 17 -7 54 -10 84 -4 29 -8 63 -10 75 -2 11 -7 42 -10
68 -3 26 -9 78 -15 115 -5 38 -12 91 -15 118 -4 28 -8 61 -10 75 -2 14 -11 81
-20 150 -17 134 -24 190 -30 230 -2 14 -7 50 -10 80 -4 30 -9 62 -10 70 -2 8
-6 44 -10 80 -4 36 -8 67 -10 70 -1 3 -6 36 -10 73 -3 37 -8 76 -10 85 -1 9
-6 40 -9 67 -4 28 -11 86 -17 130 -6 44 -12 94 -14 110 -8 62 -17 127 -20 143
-1 10 -8 65 -15 125 -8 64 -17 107 -24 107 -6 0 -63 -28 -126 -61z"/>
<path d="M14015 3043 c-71 -25 -131 -47 -133 -48 -1 -1 16 -56 39 -121 22 -66
44 -130 49 -144 4 -14 49 -144 99 -289 50 -145 89 -266 87 -268 -1 -2 -23 8
-47 22 -51 28 -117 53 -169 63 -42 8 -194 8 -230 0 -68 -16 -91 -24 -160 -55
-213 -97 -354 -280 -400 -518 -10 -53 -7 -299 4 -350 27 -120 60 -232 89 -302
156 -369 417 -578 737 -589 155 -6 285 30 411 113 105 68 169 150 214 274 l21
58 34 -102 c18 -56 34 -103 35 -104 2 -4 249 79 257 86 7 7 -12 66 -132 411
-45 129 -92 267 -105 305 -13 39 -62 183 -110 320 -48 138 -95 275 -105 305
-31 95 -310 903 -324 940 -7 19 -17 35 -22 37 -5 1 -67 -19 -139 -44z m-34
-1029 c90 -27 149 -63 218 -133 79 -81 78 -79 124 -163 97 -176 162 -407 160
-563 -1 -91 -30 -183 -82 -264 -159 -248 -516 -250 -721 -5 -158 189 -271 558
-236 772 15 92 71 198 137 260 101 94 269 135 400 96z"/>
<path d="M6389 2918 c0 -18 -2 -46 -3 -63 -2 -16 -6 -73 -10 -125 -4 -52 -9
-120 -11 -150 -2 -30 -7 -89 -10 -130 -3 -41 -7 -100 -10 -130 -2 -30 -7 -93
-10 -140 -3 -47 -8 -105 -10 -130 -2 -25 -7 -88 -10 -140 -4 -52 -8 -111 -10
-130 -2 -19 -6 -75 -10 -125 -7 -107 -14 -199 -20 -275 -13 -159 -16 -201 -20
-263 l-4 -69 -103 -100 c-130 -126 -169 -149 -256 -155 -93 -7 -166 22 -288
112 -22 16 -22 15 -67 -119 l-45 -135 31 -27 c172 -145 351 -170 536 -75 131
67 188 119 868 787 106 104 359 353 562 553 204 200 371 367 371 370 0 4 -60
35 -132 69 l-133 63 -470 -473 c-411 -412 -517 -523 -581 -605 -13 -17 -14
-16 -10 7 11 57 27 166 31 204 8 72 15 140 20 176 2 19 7 69 10 110 3 41 8 91
10 110 2 19 7 69 10 110 8 89 12 136 20 210 3 30 8 80 10 110 9 109 16 196 20
230 5 42 17 187 19 214 1 22 1 22 -139 86 -60 28 -118 55 -127 60 -26 15 -28
13 -29 -22z"/>
<path d="M12527 2610 c-71 -14 -132 -32 -137 -39 -8 -15 -17 -16 -148 -26 -48
-3 -90 -9 -93 -13 -4 -4 -41 -133 -83 -287 -42 -154 -83 -302 -92 -330 -47
-162 -380 -1388 -389 -1432 -3 -15 -14 -64 -24 -108 -17 -72 -19 -77 -29 -55
-5 14 -24 59 -40 100 -47 117 -159 365 -338 748 -24 52 -44 95 -44 97 0 2 -17
41 -39 87 -94 202 -445 967 -462 1006 l-19 44 -53 -6 c-28 -3 -90 -8 -137 -12
-47 -3 -102 -9 -122 -13 l-38 -6 106 -215 c58 -118 157 -318 219 -445 215
-439 374 -762 565 -1150 105 -214 208 -424 228 -465 35 -72 50 -92 62 -85 3 2
39 6 80 9 179 14 225 19 231 25 3 3 11 24 17 46 70 236 155 526 161 550 10 36
73 251 171 580 39 132 73 247 75 255 2 8 15 56 30 105 15 50 50 171 79 270
125 424 161 539 163 520 2 -11 8 -44 15 -72 10 -46 14 -52 32 -48 80 18 228
45 245 45 27 0 27 17 -4 168 -13 66 -26 133 -28 148 -2 15 -10 28 -18 29 -8 0
-72 -11 -142 -25z"/>
<path d="M8173 2168 c-82 -8 -179 -38 -240 -74 -49 -28 -126 -101 -169 -159
-33 -44 -76 -116 -72 -120 17 -11 255 -115 265 -115 4 0 19 18 32 40 39 63
106 126 164 155 92 44 219 39 387 -16 125 -41 221 -110 265 -190 39 -72 39
-153 0 -287 l-16 -55 -132 7 c-73 3 -141 8 -152 10 -11 2 -49 7 -85 11 -36 4
-67 8 -70 10 -3 2 -32 6 -65 9 -33 4 -67 8 -75 11 -71 19 -321 26 -395 11
-235 -47 -404 -242 -418 -482 -4 -60 15 -153 43 -216 22 -51 83 -135 111 -156
10 -7 24 -18 31 -25 54 -51 234 -132 338 -151 19 -3 46 -8 60 -11 96 -21 259
-10 390 25 25 7 45 11 45 11 0 -1 32 11 71 27 l70 29 0 -107 c-1 -60 2 -111 5
-115 9 -8 290 -88 295 -83 2 2 0 26 -4 54 -22 136 3 258 172 849 47 165 94
339 105 385 26 111 23 233 -7 310 -53 134 -197 250 -403 324 -203 73 -384 101
-546 84z m7 -1012 c195 -26 198 -26 375 -32 88 -4 162 -8 164 -10 8 -7 -78
-250 -105 -298 -52 -93 -144 -168 -254 -206 -149 -51 -365 -27 -496 56 -68 43
-92 68 -122 133 -64 139 18 318 165 357 45 11 185 11 273 0z"/>
<path d="M12639 1941 l-126 -26 17 -85 c10 -47 20 -98 23 -115 3 -16 13 -66
21 -110 19 -95 20 -101 46 -235 11 -58 22 -116 25 -130 3 -14 12 -63 21 -110
9 -47 18 -94 20 -105 3 -11 15 -76 29 -145 13 -69 33 -171 44 -228 12 -56 23
-115 26 -130 3 -15 7 -38 10 -52 3 -14 12 -63 21 -110 9 -47 17 -89 19 -95 1
-5 6 -29 10 -52 7 -38 10 -42 31 -39 13 3 59 12 101 20 43 9 92 18 108 21 17
3 37 7 45 9 9 2 14 13 13 27 -3 23 -59 317 -90 469 -8 41 -17 86 -19 100 -3
14 -21 106 -40 205 -33 166 -69 355 -80 415 -2 14 -6 35 -9 47 -3 12 -19 91
-35 175 -16 84 -32 164 -35 178 -3 14 -7 40 -10 59 -11 83 -3 81 -186 42z"/>
</g>
</svg>
